<?xml version="1.0" standalone="no"?><!DOCTYPE svg PUBLIC "-//W3C//DTD SVG 1.1//EN" "http://www.w3.org/Graphics/SVG/1.1/DTD/svg11.dtd"><svg t="1712046117821" class="icon" viewBox="0 0 1024 1024" version="1.1" xmlns="http://www.w3.org/2000/svg" p-id="1081" xmlns:xlink="http://www.w3.org/1999/xlink" width="200" height="200"><path d="M382.910403 1015.788006a16.415781 16.415781 0 0 1 0-32.831562c18.291284 0 32.252906-4.879591 41.49499-14.519759 15.147662-15.791981 14.310457-40.239183 14.302249-40.485419a24.451306 24.451306 0 0 1-0.016416-0.771542V127.817374a16.415781 16.415781 0 0 1 32.831562 0v799.046346c0.160054 4.98219 0.352939 39.23782-23.129835 63.996922-15.693487 16.538899-37.723465 24.927363-65.48255 24.927364z" fill="#6E6E96" p-id="1082"></path><path d="M833.511278 574.991455c0-219.302522-170.490197-397.069014-380.796871-397.069013S71.917536 355.693038 71.917536 574.991455h761.593742z" fill="#AAE3C1" p-id="1083"></path><path d="M699.689832 125.17033a16.415781 16.415781 0 0 1-11.605958-28.021738l84.130878-84.130878a16.415781 16.415781 0 1 1 23.211914 23.216019l-84.130877 84.130877a16.350118 16.350118 0 0 1-11.605957 4.80572z" fill="#6E6E96" p-id="1084"></path><path d="M464.80463 181.632408s165.647542 8.20789 168.261755 393.978743h209.301207s-77.97496-430.91425-377.562962-393.978743z" fill="#FFA8A8" p-id="1085"></path><path d="M487.602046 177.585918a370.988442 370.988442 0 0 0-30.77959-1.284535C246.511679 176.293176 76.021482 354.059668 76.021482 573.362189h61.559178c0-208.496834 154.107248-379.430257 350.021386-395.776271z" fill="#FFFFFF" opacity=".35" p-id="1086"></path><path d="M816.652271 213.405152a16.415781 16.415781 0 0 1-11.605957-28.021738l135.430193-135.430193a16.415781 16.415781 0 1 1 23.211914 23.216019l-135.430193 135.430193A16.350118 16.350118 0 0 1 816.652271 213.405152zM833.511278 591.407236H71.917536a16.415781 16.415781 0 0 1-16.415781-16.415781C55.501755 346.996778 233.690954 161.506661 452.714407 161.506661c219.027557 0 397.212652 185.490117 397.212652 413.484794a16.415781 16.415781 0 0 1-16.415781 16.415781z m-744.841437-32.831561h728.09734c-8.257138-202.312188-168.388977-364.237452-364.052774-364.237452s-355.795636 161.921159-364.044566 364.237452z" fill="#6E6E96" p-id="1087"></path><path d="M632.639574 574.991455c0-219.302522-79.530355-397.069014-177.655685-397.069013-98.113019 0-177.651581 177.766492-177.651582 397.069013h355.307267z" fill="#FFDD61" p-id="1088"></path><path d="M473.061768 175.825326a83.375751 83.375751 0 0 0-27.27482-4.653874c-98.113019 0-177.651581 177.758284-177.651582 397.069014h61.559179c0.004104-198.573494 62.17477-363.084243 143.367223-392.41514z" fill="#FFFFFF" opacity=".35" p-id="1089"></path><path d="M76.021482 570.88751c0-60.553712 11.544398-117.914555 32.158514-169.275429C84.935251 452.964748 71.917536 510.333798 71.917536 570.88751h4.103946z m376.692925-397.069013c-6.931564 0-13.822088 0.205197-20.663364 0.595072 177.988105 11.191459 319.38133 184.410779 319.38133 396.473941h82.078905c0-219.298418-170.490197-397.069014-380.796871-397.069013z" fill="#6E6E96" opacity=".15" p-id="1090"></path><path d="M632.639574 591.407236H277.340515a16.415781 16.415781 0 0 1-16.415781-16.415781c0-231.860594 85.243047-413.484795 194.067363-413.484794 108.820212 0 194.067362 181.6242 194.067362 413.484794a16.423989 16.423989 0 0 1-16.419885 16.415781z m-338.727328-32.831561h322.155597c-3.783838-199.086487-76.00917-364.237452-161.07985-364.237452s-157.291909 165.14686-161.075747 364.237452z" fill="#6E6E96" p-id="1091"></path><path d="M470.340852 198.548871c60.085862 49.780856 103.780567 200.929159 103.780567 379.688805H280.537489a906.848779 906.848779 0 0 0-0.164158 16.415781h355.307267c0-210.052229-72.976354-381.970599-165.339746-396.104586z" fill="#6E6E96" opacity=".15" p-id="1092"></path></svg>